<svg width="552" height="431" viewBox="0 0 552 431" fill="none" xmlns="http://www.w3.org/2000/svg">
<path d="M136 370.094V362.663C136 342.623 140.933 327.621 150.798 317.658C160.72 307.638 173.641 302.628 189.56 302.628C204.751 302.628 216.719 306.54 225.464 314.365C234.264 322.133 238.664 332.491 238.664 345.438V348.815H212.179V344.594C212.179 337.557 210.301 332.153 206.545 328.381C202.789 324.61 197.1 322.724 189.476 322.724C181.685 322.724 175.435 325.51 170.726 331.083C166.017 336.656 163.663 345.804 163.663 358.526V374.231C163.663 386.222 165.989 395.228 170.642 401.252C175.294 407.219 181.685 410.202 189.813 410.202C197.1 410.202 202.565 408.204 206.209 404.207C209.852 400.154 211.814 394.609 212.094 387.573L212.179 384.111H238.664V387.91C238.216 400.351 233.704 410.512 225.127 418.393C216.607 426.217 204.751 430.13 189.56 430.13C173.417 430.13 160.44 425.092 150.63 415.015C140.877 404.883 136 389.909 136 370.094Z" fill="black"/>
<path d="M254.64 427.85V304.907H281.378V407.247H333.173V427.85H254.64Z" fill="black"/>
<path d="M343.011 382.844V304.907H369.581V384.871C369.581 394.215 371.486 400.773 375.298 404.545C379.11 408.26 384.183 410.118 390.517 410.118C396.795 410.118 401.84 408.232 405.652 404.46C409.464 400.689 411.369 394.159 411.369 384.871V304.907H437.519V382.844C437.519 399.113 433.063 411.075 424.15 418.731C415.293 426.33 404.054 430.13 390.433 430.13C376.643 430.13 365.292 426.33 356.38 418.731C347.467 411.075 343.011 399.113 343.011 382.844Z" fill="black"/>
<path d="M459.801 427.85V304.907H506.382C519.611 304.907 529.841 307.581 537.072 312.929C544.359 318.221 548.003 326.27 548.003 337.078C548.003 343.89 546.462 349.519 543.379 353.966C540.352 358.357 536.54 361.369 531.943 363.001V363.339C537.605 364.971 542.285 368.236 545.985 373.134C549.741 378.031 551.619 384.561 551.619 392.723C551.619 403.813 547.695 412.454 539.847 418.646C532.055 424.782 521.685 427.85 508.737 427.85H459.801ZM486.119 409.189H506.551C512.885 409.189 517.537 407.557 520.508 404.292C523.479 401.027 524.965 396.608 524.965 391.035C524.965 385.462 523.479 381.043 520.508 377.778C517.537 374.457 512.885 372.796 506.551 372.796H486.119V409.189ZM486.119 355.908H504.364C510.586 355.908 515.071 354.501 517.818 351.686C520.564 348.872 521.938 344.903 521.938 339.781C521.938 334.658 520.564 330.746 517.818 328.044C515.071 325.285 510.586 323.878 504.364 323.822H486.119V355.908Z" fill="black"/>
<path d="M0 273.806V150.863H26.7382V199.838H72.3107V150.863H98.9648V273.806H72.3107V220.947H26.7382V273.806H0Z" fill="black"/>
<path d="M122.34 273.806V150.863H149.162V273.806H122.34Z" fill="black"/>
<path d="M172.537 273.806V150.863H199.275V200.598L241.232 150.863H269.82L199.275 232.093V273.806H172.537ZM243.754 273.806L202.722 214.614L219.539 195.194L275.622 273.806H243.754Z" fill="black"/>
<path d="M283.441 273.806V150.863H310.264V273.806H283.441Z" fill="black"/>
<path d="M333.638 273.806V150.863H361.638L402.67 225.085C403.567 226.83 404.352 228.519 405.024 230.151C405.753 231.784 406.426 233.472 407.042 235.217H407.631C407.575 233.303 407.519 231.474 407.463 229.729C407.463 227.928 407.463 226.07 407.463 224.156V150.863H430.417V273.806H402.165L361.301 200.007C360.405 198.261 359.592 196.545 358.863 194.856C358.19 193.167 357.574 191.45 357.013 189.705H356.425C356.537 191.619 356.593 193.533 356.593 195.447C356.649 197.304 356.677 199.19 356.677 201.104V273.806H333.638Z" fill="black"/>
<path d="M449.756 216.05V208.619C449.756 188.973 454.689 174.056 464.554 163.867C474.476 153.678 487.621 148.583 503.989 148.583C518.9 148.583 530.587 152.271 539.051 159.645C547.516 166.963 551.776 176.223 551.832 187.425V189.283H525.43V188.016C525.43 182.556 523.552 177.996 519.797 174.337C516.041 170.678 510.463 168.849 503.064 168.849C495.16 168.849 488.854 171.832 484.146 177.799C479.493 183.71 477.167 192.717 477.167 204.82V220.018C477.167 232.178 479.689 241.241 484.734 247.208C489.779 253.175 496.702 256.158 505.503 256.158C509.931 256.158 513.715 255.68 516.854 254.723C520.049 253.709 523.104 252.105 526.019 249.91V228.293H503.821V208.957H552V258.86C548.02 262.97 542.134 266.882 534.343 270.597C526.607 274.256 516.966 276.086 505.418 276.086C488.154 276.086 474.56 270.991 464.639 260.802C454.717 250.613 449.756 235.696 449.756 216.05Z" fill="black"/>
<path d="M0 122.942V0H27.9994L69.0315 74.2215C69.9284 75.9665 70.7132 77.6553 71.3858 79.2878C72.1145 80.9202 72.7872 82.609 73.4038 84.3541H73.9924C73.9363 82.4401 73.8803 80.6106 73.8242 78.8656C73.8242 77.0642 73.8242 75.2066 73.8242 73.2926V0H96.7787V122.942H68.527L27.6631 49.1432C26.7662 47.3982 25.9534 45.6812 25.2247 43.9925C24.552 42.3037 23.9354 40.5868 23.3749 38.8417H22.7863C22.8984 40.7557 22.9545 42.6696 22.9545 44.5835C23.0105 46.4412 23.0385 48.327 23.0385 50.2409V122.942H0Z" fill="black"/>
<path d="M120.238 122.942V0H201.881V20.603H146.555V50.072H194.314V69.7462H146.555V102.593H202.806V122.942H120.238Z" fill="black"/>
<path d="M237.869 123.365L209.028 0H235.346L253.256 81.6521C253.592 83.3408 253.844 84.7763 254.012 85.9584C254.181 87.0843 254.377 88.5479 254.601 90.3492H255.274C255.442 88.5479 255.61 87.0843 255.778 85.9584C255.946 84.7763 256.227 83.3408 256.619 81.6521L276.21 0H304.294L324.305 81.5676C324.754 83.2564 325.034 84.6918 325.146 85.874C325.314 86.9998 325.51 88.4916 325.735 90.3492H326.323C326.547 88.4916 326.744 86.9998 326.912 85.874C327.136 84.6918 327.388 83.2564 327.669 81.5676L344.989 0H368.448L340.113 123.365H311.272L290.756 41.6282C290.364 39.9957 290.028 38.4477 289.747 36.9841C289.467 35.4642 289.243 33.8036 289.075 32.0022H288.486C288.262 33.8036 288.01 35.436 287.729 36.8996C287.505 38.3632 287.197 39.9394 286.805 41.6282L266.288 123.365H237.869Z" fill="black"/>
</svg>
